# xmcd CD database file
#
# Track frame offsets:
#	150
#	12786
#	44241
#	70220
#	103794
#	110330
#	122926
#	146934
#	178027
#
# Disc length: 2728 seconds
#
# Revision: 0
# Processed by: cddbd v1.5.2PL0 Copyright (c) Steve Scherf et al.
# Submitted via: CDex 1.70beta2
#
DISCID=880aa609
DTITLE=Yannick Délez - Rouges
DYEAR=2002
DGENRE=Jazz
TTITLE0=Bye Bye Black Bird
TTITLE1=T.O.C
TTITLE2=Douze
TTITLE3=Légende
TTITLE4=Rouges
TTITLE5=Convexe
TTITLE6=Giant Steps
TTITLE7=Ethyle
TTITLE8=About 'Round Midnight
EXTD=YEAR: 2002
EXTT0=
EXTT1=
EXTT2=
EXTT3=
EXTT4=
EXTT5=
EXTT6=
EXTT7=
EXTT8=
PLAYORDER=
